<?xml version="1.0" standalone="no"?><!DOCTYPE svg PUBLIC "-//W3C//DTD SVG 1.1//EN" "http://www.w3.org/Graphics/SVG/1.1/DTD/svg11.dtd"><svg class="icon" width="200px" height="200.00px" viewBox="0 0 1024 1024" version="1.1" xmlns="http://www.w3.org/2000/svg"><path d="M20.48 921.6h993.28v71.68H20.48v-71.68zM10.24 656.384l129.024-80.896 233.472 117.76L627.712 307.2l260.096 200.704L1013.76 501.76v35.84l-140.288 7.168-235.52-179.2-251.904 378.88-243.712-123.904L10.24 701.44v-45.056z m882.688-203.776l59.392-3.072V248.832c0-17.408-12.288-33.792-29.696-33.792h-90.112c-17.408 0-33.792 15.36-33.792 33.792v131.072l94.208 72.704z m-34.816 149.504L798.72 558.08V870.4h153.6V598.016l-94.208 4.096zM614.4 237.568l92.16 70.656V55.296C706.56 37.888 695.296 30.72 677.888 30.72h-90.112c-16.384 0-34.816 7.168-34.816 24.576v273.408l61.44-91.136z m25.6 198.656L552.96 565.248V870.4h153.6V486.4l-66.56-50.176zM392.192 811.008l-84.992-40.96V870.4h163.84V702.464l-78.848 108.544zM358.4 628.736l112.64-160.768v-21.504c0-17.408-18.432-26.624-35.84-26.624h-90.112c-17.408 0-37.888 8.192-37.888 26.624v159.744l51.2 22.528zM139.264 515.072l86.016 43.008v-225.28c0-17.408-16.384-25.6-33.792-25.6H101.376c-16.384 0-29.696 8.192-29.696 25.6v225.28l67.584-43.008z m6.144 167.936L71.68 729.088v135.168c0 2.048-1.024 6.144 0 6.144h150.528s3.072-4.096 3.072-6.144V722.944l-79.872-39.936z m-1.024 0" /></svg>