<?xml version="1.0" standalone="no"?><!DOCTYPE svg PUBLIC "-//W3C//DTD SVG 1.1//EN" "http://www.w3.org/Graphics/SVG/1.1/DTD/svg11.dtd"><svg class="icon" width="64px" height="64.00px" viewBox="0 0 1024 1024" version="1.1" xmlns="http://www.w3.org/2000/svg"><path d="M924.964571 47.250286l-365.714285 365.714285a36.571429 36.571429 0 1 0 51.785143 51.785143l365.714285-365.714285a36.571429 36.571429 0 0 0-51.785143-51.785143zM841.142857 914.285714h-731.428571v-804.571428H512a36.571429 36.571429 0 0 0 0-73.142857H73.142857a36.571429 36.571429 0 0 0-36.571428 36.571428v877.714286a36.571429 36.571429 0 0 0 36.571428 36.571428h804.571429a36.571429 36.571429 0 0 0 36.571428-36.571428V438.857143a36.571429 36.571429 0 1 0-73.142857 0v475.428571zM219.428571 329.142857h146.285715a36.571429 36.571429 0 0 0 0-73.142857H219.428571a36.571429 36.571429 0 0 0 0 73.142857zM219.428571 548.571429h146.285715a36.571429 36.571429 0 0 0 0-73.142858H219.428571a36.571429 36.571429 0 0 0 0 73.142858zM219.428571 768h438.857143a36.571429 36.571429 0 1 0 0-73.142857H219.428571a36.571429 36.571429 0 1 0 0 73.142857z" /></svg>