<?xml version="1.0" standalone="no"?><!DOCTYPE svg PUBLIC "-//W3C//DTD SVG 1.1//EN" "http://www.w3.org/Graphics/SVG/1.1/DTD/svg11.dtd"><svg class="icon" width="200px" height="118.86px" viewBox="0 0 1723 1024" version="1.1" xmlns="http://www.w3.org/2000/svg"><path d="M1084.507467 1024c-11.953307 0-23.64676-4.850617-31.182541-12.906107-10.307562-11.000508-42.789376-39.497885-69.381153-39.497886-26.418542 0-59.420064 28.670614-68.948063 38.718322-7.449163 7.968872-19.142615 12.732871-30.922687 12.732871-5.716799 0-11.000508-1.039418-15.851125-3.118254l-0.866181-0.346473-80.901371-44.088648-0.779563-0.519709c-14.725089-10.047708-20.35527-29.623414-12.992726-45.734393 0.086618-0.086618 7.449163-16.717307 7.449163-31.962105 0-46.080866-38.458467-83.586534-85.751988-83.586534h-3.378109c-13.512434 0-24.59956-11.693453-28.150905-29.883268-0.259855-1.472509-6.842835-35.859922-6.842835-62.971409 0-27.111487 6.669599-61.4989 6.842835-62.97141 3.551345-18.363052 14.898325-30.143123 28.670614-29.79665h2.8584c47.293521 0 85.751988-37.505667 85.751988-83.586533 0-15.244798-7.362544-31.875486-7.449163-31.962105-7.275926-15.937743-1.645745-35.600068 13.165962-45.647775l0.866182-0.606328 85.405515-45.734393 0.866182-0.346473c4.850617-1.992218 10.134326-2.945018 15.677888-2.945017 11.866689 0 23.473524 4.677381 31.009305 12.386398 10.134326 10.307562 42.09643 37.159195 67.908645 37.159195 25.55236 0 57.341228-26.245305 67.388936-36.379632 7.535781-7.622399 19.055997-12.213162 30.74945-12.213162 5.716799 0 11.087126 1.039418 15.937743 3.118255l0.866182 0.346472 82.460497 44.608357 0.866182 0.606328c14.811707 10.047708 20.35527 29.623414 13.079343 45.734393-0.086618 0.086618-7.449163 16.717307-7.449162 31.962105 0 46.080866 38.458467 83.586534 85.751988 83.586533h2.858399c13.772289-0.346473 25.032651 11.433598 28.670614 29.796651 0.259855 1.472509 6.842835 35.859922 6.842836 62.971409 0 27.111487-6.669599 61.4989-6.842836 62.971409-3.551345 18.363052-14.898325 30.143123-28.670614 29.79665h-2.858399c-47.293521 0-85.751988 37.505667-85.751988 83.586534 0 15.244798 7.362544 31.788868 7.449162 31.962105 7.275926 15.937743 1.645745 35.600068-13.079343 45.647775l-0.866182 0.606327-83.846388 45.128066-0.866182 0.346473c-4.937236 1.992218-10.220944 3.031636-15.764507 3.031636z m-10.047707-59.073592c0.346473 0.259855 1.385891 0.606327 2.33869 0.606328h0.086619l72.239553-38.891559c-1.818982-3.897818-9.701235-23.127051-9.701235-43.04923 0-59.766537 48.332939-108.792421 108.879039-111.824057 0.866182-4.677381 5.630181-31.095923 5.630181-50.931483s-4.763999-46.167484-5.630181-50.931484c-60.632719-3.031636-108.879039-52.05752-108.879039-111.824057 0-20.095415 7.968872-39.151413 9.701235-43.04923l-71.026899-38.458467h-0.346473c-1.212654 0-2.338691 0.433091-2.685163 0.692945-1.212654 1.212654-11.433598 11.34698-26.245305 21.481306-21.914397 15.071561-42.702758 22.607342-61.585519 22.607342-19.142615 0-40.017594-7.709017-62.018609-23.127051-14.898325-10.39418-25.205887-20.701743-26.418542-21.914397-0.346473-0.259855-1.559127-0.692945-2.685163-0.692945h-0.259855l-73.625444 39.411267c1.818982 3.984436 9.701235 23.127051 9.701235 43.04923 0 59.766537-48.24632 108.792421-108.879039 111.824057-0.866182 4.677381-5.630181 31.095923-5.630181 50.931484s4.763999 46.167484 5.630181 50.931483c60.632719 3.031636 108.879039 52.05752 108.879039 111.824057 0 20.095415-7.968872 39.238031-9.787853 43.135849l69.727626 38.025376h0.173237c1.039418 0 1.992218-0.346473 2.252072-0.606327 1.299273-1.385891 11.693453-12.039926 26.678396-22.780579 22.347488-15.937743 43.568939-24.079851 63.144646-24.079851 19.748943 0 41.143631 8.228726 63.577736 24.512942 15.071561 10.740653 25.55236 21.741161 26.765015 23.127051zM984.203627 831.621046C921.232218 831.621046 870.04088 781.72898 870.04088 720.316698c0-61.325664 51.277956-111.304348 114.249365-111.304348S1098.452993 658.817797 1098.452993 720.316698c-0.086618 61.325664-51.191338 111.304348-114.249366 111.304348z m0-179.039757c-38.371849 0-69.55439 30.402977-69.55439 67.735409s31.182541 67.735409 69.55439 67.735408 69.55439-30.402977 69.55439-67.735408-31.182541-67.735409-69.55439-67.735409zM619.974224 940.933175H344.7883c-5.716799 0-10.307562-4.677381-10.307562-10.307562v-27.371341c0-5.716799 4.677381-10.307562 10.307562-10.307562h275.185924M587.838883 758.775165H243.358423c-41.576721 0-80.641516-16.890543-110.178311-47.553375-29.276941-30.402977-45.301303-70.680426-45.301303-113.383184V160.936559c0-42.702758 16.024361-82.980206 45.301303-113.383184 29.450178-30.662832 68.60159-47.553375 110.178311-47.553375h661.156488c41.576721 0 80.641516 16.890543 110.178312 47.553375 29.276941 30.402977 45.301303 70.680426 45.301303 113.383184v206.151243h-45.90763v-206.151243c0-63.491118-49.19912-115.115547-109.571985-115.115547H243.358423c-60.459482 0-109.571984 51.711047-109.571984 115.202165v436.902047c0 63.491118 49.112502 115.202165 109.571984 115.202166h344.48046v45.647775z" /></svg>