<?xml version="1.0" standalone="no"?><!DOCTYPE svg PUBLIC "-//W3C//DTD SVG 1.1//EN" "http://www.w3.org/Graphics/SVG/1.1/DTD/svg11.dtd"><svg class="icon" width="200px" height="200.00px" viewBox="0 0 1024 1024" version="1.1" xmlns="http://www.w3.org/2000/svg"><path d="M542.565193 480.752524c0 9.289421-7.591355 16.880776-16.880777 16.880777H153.40836c-9.389308 0-16.880776-7.591355-16.880776-16.880777 0-9.289421 7.591355-16.880776 16.880776-16.880776h372.276056c9.389308 0 16.880776 7.591355 16.880777 16.880776zM542.565193 568.952084c0 9.289421-7.591355 16.880776-16.880777 16.880776H153.40836c-9.389308 0-16.880776-7.591355-16.880776-16.880776 0-9.289421 7.591355-16.880776 16.880776-16.880777h372.276056c9.389308 0 16.880776 7.591355 16.880777 16.880777zM542.565193 657.151643c0 9.289421-7.591355 16.880776-16.880777 16.880776H153.40836c-9.389308 0-16.880776-7.491469-16.880776-16.880776 0-9.289421 7.591355-16.880776 16.880776-16.880776h372.276056c9.389308 0 16.880776 7.591355 16.880777 16.880776zM542.565193 745.351202c0 9.389308-7.591355 16.880776-16.880777 16.880777H153.40836c-9.389308 0-16.880776-7.591355-16.880776-16.880777 0-9.289421 7.591355-16.880776 16.880776-16.880776h372.276056c9.389308 0 16.880776 7.591355 16.880777 16.880776zM542.565193 833.550762c0 9.289421-7.591355 16.880776-16.880777 16.880776H153.40836c-9.389308 0-16.880776-7.591355-16.880776-16.880776 0-9.289421 7.591355-16.880776 16.880776-16.880777h372.276056c9.389308 0 16.880776 7.591355 16.880777 16.880777z" fill="#F79633" /><path d="M605.393644 465.769587c-0.299659 10.38817-0.399545 58.233684-0.399545 142.138134 0 144.435518 0.399545 313.443054 0.399545 313.8426 2.39727 72.916963 109.175672 103.881701 214.056235 102.183634 95.890801-1.59818 199.173184-30.465306 199.173184-90.197284 0-29.466444 0.199773-41.55268 0.399545-88.499218 0.199773-53.738803 0.499431-111.273283 0.499431-155.423006 0-27.668491-0.099886-50.043012-0.399545-62.928338-0.699204-34.161098-31.16451-52.240509-59.532205-51.94085-17.679866 0.199773-32.163373 7.091924-41.053249 18.478956-2.996588-5.194085-6.992038-9.788853-11.786578-13.784303-10.38817-8.390445-24.372245-12.985213-39.255296-12.985212-19.377933 0-38.855751 7.9909-49.243922 23.373382-10.787715-18.678729-32.662804-28.467581-53.638916-28.467581-14.583393 0-28.068036 4.594768-37.956775 12.885326-1.59818 1.398408-3.19636 2.796815-4.594768 4.295109-0.199773-44.049837-0.299659-86.201834-0.299659-108.076923 0-35.659391-29.56633-54.737665-58.733115-55.13721-27.96815-0.399545-56.73539 16.681004-57.634367 50.242784z m95.191597 4.894426c0 57.634367 1.098749 257.406868 1.098749 257.406868v1.997725h28.367695V614.699986c0-10.288284 3.396133-18.37907 10.188398-24.072586 6.192948-5.194085 14.883051-7.9909 24.472131-7.9909 19.577705 0 39.355183 11.686691 39.355183 34.161098 0 37.057799 0.499431 110.174534 0.499431 110.174534v2.996588h28.367695v-2.197498s-1.098749-68.921513-1.098748-112.072373c0-19.17816 18.478956-27.96815 35.559505-27.96815 9.988625 0 19.377933 3.096474 25.970425 8.390445 7.291696 5.893289 10.987488 14.183848 10.987487 24.77179 0 48.444832 0.499431 105.080336 0.499432 105.080336v4.095336h25.770652v-4.195223s-0.499431-59.032774-0.499431-103.382269c0-24.77179 24.77179-26.270084 29.666217-26.36997 18.179298-0.199773 37.757003 10.687829 38.156547 31.264396 0.699204 33.362008 0.299659 130.651216-0.099886 217.851913-0.199773 46.946538-0.399545 59.032774-0.399545 88.599104 0 37.157685-78.31082 67.523105-178.396844 69.121286-91.395919 1.498294-190.682852-23.473269-192.580691-81.407295 0 0-0.399545-169.107422-0.399545-313.443054 0-83.704678 0.099886-131.35042 0.399545-141.638704 0.599318-20.876226 18.578843-29.965875 36.158823-29.666216 14.183848 0 37.956775 7.391583 37.956775 33.861439z" fill="#54A8B9" /><path d="M845.02076 351.899261c0 14.683279-11.886464 26.569743-26.569743 26.569743H163.097327c-14.683279 0-26.569743-11.886464-26.569743-26.569743V232.734964c0-14.683279 11.886464-26.569743 26.569743-26.569743h655.35369c14.683279 0 26.569743 11.886464 26.569743 26.569743v119.164297zM935.717475 563.757999c8.590218-7.591355 28.967013-10.987488 43.350633-7.691242V206.165221h-43.750178v352.898124c0.099886 0.099886 0.299659 4.594768 0.399545 4.694654z" fill="#626264" /><path d="M596.903313 967.997655v-1.698066c0-3.19636 0-12.086236-0.099886-25.371108H145.41746c-53.239372 0-96.789777-43.550405-96.789777-96.789777V206.165221H4.877506v662.945046c0 58.433457 47.845514 106.278971 106.27897 106.27897h486.545927c-0.199773-2.497156-0.699204-4.894426-0.79909-7.391582zM801.570241 71.11901H772.703114c-3.695791 0-6.792265 2.996588-6.792265 6.792265v28.867127c0 3.695791 2.996588 6.792265 6.792265 6.792265h28.867127c3.695791 0 6.792265-3.096474 6.792265-6.792265V77.911275c0-3.695791-2.996588-6.792265-6.792265-6.792265z" fill="#626264" /><path d="M872.789137 1.198635H111.156476C52.72302 1.198635 4.877506 49.044149 4.877506 107.477606v62.428906h974.190602v-62.428906c0-58.433457-47.845514-106.278971-106.278971-106.278971zM723.359306 127.854401h-60.630954c-3.096474 0-5.59363-2.896701-5.59363-6.492606s2.497156-6.492606 5.59363-6.492607h60.630954c3.096474 0 5.59363 2.896701 5.59363 6.492607s-2.497156 6.492606-5.59363 6.492606z m99.486706-11.18726c0 6.292834-5.094199 11.387033-11.387033 11.387032h-48.544717c-6.292834 0-11.387033-5.094199-11.387033-11.387032V68.122423c0-6.292834 5.094199-11.387033 11.387033-11.387033h48.544717c6.292834 0 11.387033 5.094199 11.387033 11.387033v48.544718z m89.298308 4.195222c-2.297384 2.297384-5.693516 2.497156-7.691241 0.599318l-21.675317-21.675317-21.675316 21.675317c-1.997725 1.897839-5.393858 1.698066-7.691241-0.599318s-2.497156-5.693516-0.599318-7.691241L874.58709 91.595692 852.911773 69.920375c-1.897839-1.997725-1.698066-5.393858 0.599318-7.691241s5.693516-2.497156 7.691241-0.599317l21.675317 21.675316L904.552965 61.629817c1.997725-1.997725 5.393858-1.698066 7.691241 0.599317s2.497156 5.693516 0.499432 7.691241l-21.675317 21.675317 21.675317 21.675316c1.897839 1.897839 1.698066 5.293971-0.599318 7.591355z" fill="#626264" /></svg>