<?xml version="1.0" standalone="no"?><!DOCTYPE svg PUBLIC "-//W3C//DTD SVG 1.1//EN" "http://www.w3.org/Graphics/SVG/1.1/DTD/svg11.dtd"><svg class="icon" width="200px" height="188.58px" viewBox="0 0 1086 1024" version="1.1" xmlns="http://www.w3.org/2000/svg"><path d="M685.965234 598.752927c-106.627234 0-191.802834-93.377696-191.802834-208.837955 0-73.818854 34.701171-138.173752 87.699322-175.398644v0.63093c2.523722-1.892791 4.416513-3.785582 6.940234-5.047443 0.63093-0.63093 1.892791-1.261861 2.523721-1.892791 27.760937-17.03512 59.938386-27.130006 94.639557-27.130006 106.627234 0 191.802834 93.377696 191.802834 208.837954 0.63093 115.460259-85.175601 208.837954-191.802834 208.837955M398.260982 486.44732c-106.627234 0-191.802834-93.377696-191.802834-208.837955 0-116.091189 85.806531-208.837954 191.802834-208.837954 63.723968 0 119.876771 33.43931 154.577942 84.54467C479.651001 201.89772 431.069362 290.227973 431.069362 389.914972c0 31.546519 5.047443 62.462107 13.880468 90.223044-14.511399 3.785582-30.284658 6.309304-46.688848 6.309304M832.972011 619.573629c66.247689-49.212569 109.781885-133.126309 109.781886-227.765866 0-153.947012-115.460259-279.502157-256.788663-279.502156-17.666051 0-35.332101 1.892791-52.367221 5.678373-13.249538 3.154652-27.130006-2.523722-35.332101-13.249538C551.577064 41.010474 479.02007 0 398.260982 0 256.932578 0 143.365111 125.555145 143.365111 277.609365c0 95.270487 43.534196 178.553296 109.781885 227.765866-138.804683 59.938386-239.122612 200.004929-253.003081 366.570548-1.892791 21.451633 15.142329 39.748614 35.963032 39.748614 18.296981 0 34.07024-14.511399 35.332101-33.43931 14.511399-166.565619 135.0191-300.953789 286.44239-321.774492h3.154652c7.571165-0.63093 47.319778-3.154652 80.759088 0h3.785583c15.142329 2.523722 30.284658 5.678373 44.796056 10.725817 14.511399 18.927911 31.546519 35.963031 51.105361 50.47443-139.435613 59.938386-239.122612 200.004929-253.003081 366.570548-1.892791 21.451633 15.142329 39.748614 35.963031 39.748614 18.296981 0 34.07024-14.511399 35.332101-33.43931 14.511399-166.565619 135.0191-300.953789 286.442391-321.774492h3.154652c7.571165-0.63093 47.319778-3.154652 80.759088 0h3.785582c148.899569 23.344424 265.621688 154.577942 279.502157 319.881701 1.892791 18.927911 17.03512 33.43931 35.332101 33.43931h1.261861c20.820702 0 37.855823-18.296981 35.963031-39.748614-15.773259-165.303758-116.091189-304.739372-253.003081-362.784966" /></svg>